<?xml version="1.0" encoding="utf-8"?>
<!-- Generator: Adobe Illustrator 22.0.1, SVG Export Plug-In . SVG Version: 6.00 Build 0)  -->
<svg version="1.1" id="Layer_1" xmlns="http://www.w3.org/2000/svg" xmlns:xlink="http://www.w3.org/1999/xlink" x="0px" y="0px"
	 viewBox="0 0 512 512" style="enable-background:new 0 0 512 512;" xml:space="preserve">
<style type="text/css">
	.st0{fill:none;stroke:#000000;stroke-width:5;stroke-miterlimit:10;}
</style>
<path class="st0" d="M10.7,133.3C10.7,99.5,38.1,72,72,72h368c33.8,0,61.3,27.5,61.3,61.3v245.3c0,33.8-27.5,61.3-61.3,61.3H72
	c-33.9,0-61.3-27.5-61.3-61.3V133.3z M56.7,133.3v21.2L222,290.2c19.7,16.3,48.3,16.3,68,0l165.3-135.7v-22
	c0-7.6-6.9-15.3-15.3-15.3H72c-8.5,0-15.3,7.8-15.3,15.3V133.3z M56.7,214v164.6c0,8.4,6.9,15.3,15.3,15.3h368
	c8.4,0,15.3-6.9,15.3-15.3V214L319.3,325.8c-36.8,30.2-89.7,30.2-127.4,0L56.7,214z"/>
</svg>
